<svg xmlns="http://www.w3.org/2000/svg" viewBox="0 0 268.84 214.92"><defs></defs><g id="圖層_2" data-name="圖層 2"><g id="圖層_1-2" data-name="圖層 1"><path class="cls-1"  fill="#cc543a" d="M259.07,171.05a24.3,24.3,0,0,0-9.78-4.52v-5.38a24.46,24.46,0,0,0-24.44-24.44H168.22l42-42a16.68,16.68,0,0,0,0-23.6l-9.78-9.78-9.77,9.78L143.78,24.28l9.77-9.77-9.77-9.78a17.08,17.08,0,0,0-23.6,0L73.32,51.59a16.68,16.68,0,0,0,0,23.6L83.1,85l9.77-9.77,12.56,12.55L44,146.4l-9.77,9.33L5.75,182.9A18.58,18.58,0,1,0,32,209.16l8.51-8.91,9.33-9.77,77.31-81L139.73,122,130,131.82l5.08,5.07a24.39,24.39,0,0,0-22.6,24.26v5.38a24.49,24.49,0,0,0-19.56,23.95v24.44h176V190.48A23.62,23.62,0,0,0,259.07,171.05ZM200.41,75.19l2.87,2.86a6.93,6.93,0,0,1,0,9.78l-46.86,46.85a7.17,7.17,0,0,1-9.78,0l-2.86-2.86Zm-117.31-4-2.87-2.87a6.92,6.92,0,0,1,0-9.77l46.86-46.86a6.93,6.93,0,0,1,9.78,0l2.86,2.87ZM25,202.41A8.8,8.8,0,1,1,12.5,190l99.85-95.31,7.91,7.91ZM99.79,68.27l37.08-37.08,46.85,46.86-37.08,37.08Zm22.41,92.88a14.69,14.69,0,0,1,14.67-14.67h88a14.69,14.69,0,0,1,14.67,14.67V166H122.2Zm136.87,34.21v9.78H102.65V190.48a14.68,14.68,0,0,1,14.66-14.67H244.4a14.69,14.69,0,0,1,14.67,14.67Z"/></g></g></svg>