<svg xmlns="http://www.w3.org/2000/svg" viewBox="0 0 205.62 232.7"><defs><style>.cls-1{fill:#fff;}</style></defs><g id="圖層_2" data-name="圖層 2"><g id="圖層_1-2" data-name="圖層 1"><circle class="cls-1" cx="202.21" cy="125.47" r="3.41"/><path class="cls-1" d="M167.4,100.17a7.87,7.87,0,0,0-.68-7.39l-2.61-4a3.41,3.41,0,1,0-5.7,3.73l2.61,4a1,1,0,0,1,.09,1,1,1,0,0,1-.78.64l-8.52,1.67A7.35,7.35,0,0,0,145.9,107v1.82h-21a15.24,15.24,0,0,0-15.27,14.62,15,15,0,0,0,15,15.41H141a18.35,18.35,0,0,1-15.25,5.79L99,142.17a55,55,0,0,1-22.28-7,3.41,3.41,0,1,0-3.37,5.92,61.53,61.53,0,0,0,24,7.78c-1.76,6.56-2.11,7.85-4.13,15.41a9.15,9.15,0,0,1-14,5.21L49.56,149.39l5.53-22.16a27.35,27.35,0,0,0-1.59-17.66c-.67-1.5-1.28-3-1.81-4.61A24,24,0,0,0,62.82,94a20.62,20.62,0,0,0,14.35,5.85,3.41,3.41,0,1,0,0-6.81A13.73,13.73,0,0,1,63.44,79.31a9.06,9.06,0,0,1,9-9h.93a2.54,2.54,0,0,1,2.53,2.54v4.54a6.48,6.48,0,0,0,6.46,6.47A13.35,13.35,0,0,0,95.75,70.47V49.86a13.32,13.32,0,0,1,13.3-13.3h32.16A50.67,50.67,0,0,1,145.9,58V68.36a17.07,17.07,0,0,0,2.8,9.38l1.07,1.63a3.41,3.41,0,0,0,5.7-3.74L154.4,74a10.27,10.27,0,0,1-1.68-5.64V58A58,58,0,0,0,72.54,4.43a3.41,3.41,0,1,0,2.61,6.3A51.46,51.46,0,0,1,94.69,6.82a50.88,50.88,0,0,1,42.69,22.92H109.05A20.15,20.15,0,0,0,88.93,49.86V70.47A6.52,6.52,0,0,1,82.76,77V72.81a9.37,9.37,0,0,0-9.35-9.36h-.93A15.88,15.88,0,0,0,56.62,79.31,20.37,20.37,0,0,0,58.12,87a17.3,17.3,0,0,1-8.27,11.23c-.27-1.28-5.69-32.29-5.7-32.34A51.17,51.17,0,0,1,62.4,18.38a3.41,3.41,0,1,0-4.32-5.27A57.92,57.92,0,0,0,36.76,56a59,59,0,0,0,.65,11c0,.26-.58-3.24,5.4,30.81a62.76,62.76,0,0,0,4.46,14.61,20.46,20.46,0,0,1,1.2,13.23l-5.48,22a45.74,45.74,0,0,0-43,45.6v8.43a3.41,3.41,0,0,0,6.82,0v-8.43A38.89,38.89,0,0,1,44.65,154.3l30.66,20.81A16,16,0,0,0,99.71,166l.74-2.73a43,43,0,0,1,21,36.9v25.7H43.54V202.77a3.41,3.41,0,1,0-6.81,0v23.12H6.82v-8.41a3.41,3.41,0,1,0-6.82,0v11a4.21,4.21,0,0,0,4.21,4.2H124a4.21,4.21,0,0,0,4.21-4.2V200.19a49.86,49.86,0,0,0-26-43.71l1.87-7,20.94,2A25.19,25.19,0,0,0,150,137.71a3.9,3.9,0,0,0-3.48-5.65H124.65a8.2,8.2,0,0,1-8.19-8.42,8.38,8.38,0,0,1,8.45-8h22a5.78,5.78,0,0,0,5.77-5.77V107a.51.51,0,0,1,.41-.5l8.52-1.67a7.88,7.88,0,0,0,5.75-4.69Z"/><path class="cls-1" d="M185.48,123.75H169.6a3.41,3.41,0,0,0,0,6.82h15.88a3.41,3.41,0,0,0,0-6.82Z"/><path class="cls-1" d="M163.9,118.43a3.4,3.4,0,0,0,4.82,0L180,107.2a3.41,3.41,0,1,0-4.82-4.82L163.9,113.61A3.41,3.41,0,0,0,163.9,118.43Z"/><path class="cls-1" d="M168.72,135.88a3.41,3.41,0,0,0-4.82,4.82l11.23,11.23a3.41,3.41,0,0,0,4.82-4.82Z"/><circle class="cls-1" cx="186.14" cy="115.46" r="3.41"/><circle class="cls-1" cx="158.03" cy="149.25" r="3.41"/><circle class="cls-1" cx="154.62" cy="123.75" r="3.41"/><circle class="cls-1" cx="187.29" cy="141.7" r="3.41"/></g></g></svg>