<svg xmlns="http://www.w3.org/2000/svg" viewBox="0 0 184.5 288"><defs><style>.cls-1{fill:#fff;}</style></defs><g id="圖層_2" data-name="圖層 2"><g id="圖層_1-2" data-name="圖層 1"><path class="cls-1" d="M145.69,262.07V219.3a4.22,4.22,0,0,0-8.44,0v42.77a4.22,4.22,0,1,0,8.44,0Zm16.87,0V219.3a4.22,4.22,0,0,0-8.44,0v42.77a4.22,4.22,0,1,0,8.44,0Zm5.76-65.18v-30a9.85,9.85,0,0,0-9.84-9.85H151a16.25,16.25,0,0,0-1.48-3.61L113.37,89.44A26.71,26.71,0,0,0,98.55,77.23C98,77,89.13,74.15,88.63,73.9a7.2,7.2,0,0,1-4.2-5.32,29.93,29.93,0,0,0,10.8-23V34.73h7.34a4.22,4.22,0,0,0,0-8.44H95.23v-7A19.35,19.35,0,0,0,75.9,0H54.63A19.35,19.35,0,0,0,35.3,19.33v7H28a4.22,4.22,0,0,0,0,8.44H35.3V45.56A29.89,29.89,0,0,0,46.15,68.62a7,7,0,0,1-4.38,5.83L20.12,83.11A26.73,26.73,0,0,0,3.36,106.72L2.49,126a4.22,4.22,0,1,0,8.43.38l.87-19.25A18.29,18.29,0,0,1,23.26,90.94l19-7.6a28.2,28.2,0,0,0,46.36-.52l7.26,2.42A18.21,18.21,0,0,1,106,93.59l29.49,52.16-12.3,7.7-18.42-29.52c-1.46-3-8-2.43-7.8,2.23v29.53H33.53V126.16a4.22,4.22,0,0,0-8.44,0v33.57l-.88,10.43H9l1.09-24.24a4.22,4.22,0,1,0-8.43-.38c0,.7-1.62,35.89-1.62,36.54a15.82,15.82,0,0,0,15.81,15.8A15.59,15.59,0,0,0,22,196.6l-.73,8.67a9.81,9.81,0,0,0,7.56,10.4l3.92,49.65a16.56,16.56,0,0,0-7.63,13.94A8.74,8.74,0,0,0,33.83,288H60.75a8.67,8.67,0,0,0,4.51-1.27A8.71,8.71,0,0,0,69.78,288H96.7a8.75,8.75,0,0,0,8.73-8.74,16.56,16.56,0,0,0-7.64-13.94l3.92-49.65a9.81,9.81,0,0,0,7.57-10.4l-3.85-45.54V140.9L123,169.12a15.43,15.43,0,0,0,8.45,6.53v21.24a16.72,16.72,0,0,0-16.18,16.69v21.48a4.22,4.22,0,1,0,8.44,0V213.58a8.28,8.28,0,0,1,8.27-8.27h35.77a8.28,8.28,0,0,1,8.27,8.27v57.71a8.28,8.28,0,0,1-8.27,8.27H132a8.28,8.28,0,0,1-8.27-8.27V254.75a4.22,4.22,0,1,0-8.44,0v16.54A16.73,16.73,0,0,0,132,288h35.77a16.73,16.73,0,0,0,16.71-16.71V213.58a16.72,16.72,0,0,0-16.18-16.69ZM43.74,19.33A10.9,10.9,0,0,1,54.63,8.44H75.9A10.9,10.9,0,0,1,86.79,19.33v7H43.74Zm0,26.24V34.73H86.79V45.57a21.53,21.53,0,0,1-43.05,0ZM65.26,86.78a19.69,19.69,0,0,1-15.53-7.56,15.35,15.35,0,0,0,4-6A29.91,29.91,0,0,0,77,73.14a15.44,15.44,0,0,0,4,5.79,19.65,19.65,0,0,1-15.77,7.85ZM23.15,182.71a7.37,7.37,0,0,1-14.71-1l.14-3.15H23.5Zm37.6,96.85H33.83a.3.3,0,0,1-.3-.3,8.15,8.15,0,0,1,8.14-8.14H52.9A8.15,8.15,0,0,1,61,279.26a.29.29,0,0,1-.29.3ZM61,264.83a16.47,16.47,0,0,0-8.14-2.14c-.73,0-11.26,0-11.91,0L37.3,215.94H61ZM96.7,279.56H69.78a.29.29,0,0,1-.3-.3,8.15,8.15,0,0,1,8.14-8.14H88.85A8.15,8.15,0,0,1,97,279.26a.29.29,0,0,1-.29.3ZM69.48,264.83V215.94H93.23L89.54,262.7c-.61,0-11.26,0-11.92,0A16.5,16.5,0,0,0,69.48,264.83Zm30-57.32h-30V188.34a4.22,4.22,0,1,0-8.44,0v19.17h-30a1.33,1.33,0,0,1-1.4-1.53s2.63-31.14,2.64-31.26l.89-10.59H97.33L100.87,206a1.32,1.32,0,0,1-1.4,1.53Zm30.73-42.86-2.52-4,12-7.5,2.51,4.43a7,7,0,0,1-6.06,10.39,7,7,0,0,1-5.91-3.28Zm29.68,32.22H139.93v-21a15.22,15.22,0,0,0,9.48-7.16,16,16,0,0,0,1.44-3.29h7.63a1.41,1.41,0,0,1,1.4,1.41Z"/></g></g></svg>