<svg xmlns="http://www.w3.org/2000/svg" viewBox="0 0 218.5 228"><defs><style>.cls-1{fill:#cc543a;}</style></defs><g id="圖層_2" data-name="圖層 2"><g id="圖層_1-2" data-name="圖層 1"><path class="cls-1" d="M30.22,50.37h-.1a4.71,4.71,0,0,0-4.7,4.75,4.78,4.78,0,1,0,4.8-4.75Z"/><path class="cls-1" d="M213.75,95h-7.63L218.3,53.59A4.75,4.75,0,0,0,209.56,50c-1.83,3.44-9.66,7-19.56,7-10.88,0-19-5-19-9.5V19a19,19,0,0,0-38,0v4.75a4.75,4.75,0,0,0,9.5,0V19a9.5,9.5,0,0,1,19,0V47.5c0,4.48-8.12,9.5-19,9.5-9.9,0-17.73-3.55-19.57-7a4.8,4.8,0,0,0-6-2.16,4.75,4.75,0,0,0-2.75,5.74L126.37,95H110.48L80.08,27.4a14.25,14.25,0,0,0-18.84-7.15L17.91,39.74a14.27,14.27,0,0,0-7.15,18.84L27.14,95H4.75A4.75,4.75,0,0,0,0,99.75v85.5A42.8,42.8,0,0,0,42.75,228h133a42.8,42.8,0,0,0,42.75-42.75V99.75A4.75,4.75,0,0,0,213.75,95ZM171,61.73a37.64,37.64,0,0,0,19,4.77A47.26,47.26,0,0,0,205.36,64l-9.13,31H171V61.73ZM142.5,66.5a37.64,37.64,0,0,0,19-4.77V95H136.28l-9.13-31A47.15,47.15,0,0,0,142.5,66.5ZM19.43,54.69a4.75,4.75,0,0,1,2.37-6.28L65.13,28.93a4.76,4.76,0,0,1,3.63-.12A4.71,4.71,0,0,1,71.4,31.3L100.05,95H37.55ZM209,185.25a33.29,33.29,0,0,1-33.25,33.25h-133A33.29,33.29,0,0,1,9.5,185.25V104.5H209Z"/><path class="cls-1" d="M89.93,149.68A4.67,4.67,0,0,0,95,145.26c.47-6.87,6.73-12.25,14.25-12.25,7.87,0,14.26,5.86,14.26,13.06,0,8.5-7.26,11.33-14.36,13l-1.06.26a4.72,4.72,0,0,0-3.56,4.58v11.88a4.75,4.75,0,0,0,9.5,0v-8.18c12.61-3.61,19-10.84,19-21.52,0-12.44-10.66-22.56-23.76-22.56-12.5,0-22.93,9.27-23.74,21.12A4.75,4.75,0,0,0,89.93,149.68Z"/><path class="cls-1" d="M105.93,191.43a4.75,4.75,0,1,0,6.65,0A4.75,4.75,0,0,0,105.93,191.43Z"/></g></g></svg>