<svg xmlns="http://www.w3.org/2000/svg" viewBox="0 0 283.02 289.11"><defs><style>.cls-1{fill:#cc543a;}</style></defs><g id="圖層_2" data-name="圖層 2"><g id="圖層_1-2" data-name="圖層 1"><path class="cls-1" d="M0,269.9l3.75,8.43,134.48-55.76,23.43,2.81,8.43,25.78-11.24,10.77a13.52,13.52,0,0,0-3.28,15.47l4.69,11.71L238,258.65l-4.22-11.24c-1.87-5.63-7-8.9-13.12-8.9H205.24l-8.44-20.16,20.62-10.3a14.09,14.09,0,0,0,7-17.34L197.74,119c-2.81-7.5-10.78-10.78-18.27-8.44a.46.46,0,0,0-.47.47l-19.68,8.43-2.81-7L167.28,99.8a55,55,0,0,0,13.59-30l13.59-16.4c8.9-10.31,7-25.78-3.28-34.68A39,39,0,0,0,185.56,15a23.28,23.28,0,0,0-15.93-1.4l-1.41-4.22A13.55,13.55,0,0,0,150.42.93L51.54,36.55c-7.49,2.81-11.24,10.77-8.43,17.8v.47l2.34,6.09A26,26,0,0,0,31.86,92.78a26.65,26.65,0,0,0,21.56,17.33l22,2.35a61.07,61.07,0,0,0,30.46,11.71l15.46,1.41,2.81,7a14,14,0,0,0-6.56,9.37l-3.28,15.93L0,204.3l3.28,8.9L68.88,187l15.93,47.8Zm224.45-19.68.94,2.81-60,23.9L164,274.12a6.5,6.5,0,0,1,.94-5.16l15.93-15L201,247.41h18.74A4.7,4.7,0,0,1,224.45,250.22ZM194.93,239l-16.87,5.63L172,226.79a10.41,10.41,0,0,0,7.5-1.41l8-3.74ZM182.28,118.08a4.65,4.65,0,0,1,6.09,2.34l3.75,9.84-23,7.5,2.81,8.9,23-7.49,5.62,15-22,7.5,2.81,8.9,22.49-7.5,5.63,15-21.56,7,2.81,8.9,22-7.5,2.34,6.09a4.14,4.14,0,0,1-2.34,5.63l-37,18.27a5.94,5.94,0,0,1-2.81.47L141,213.2l-17.33-52L127,143.85a5,5,0,0,1,2.81-3.28Zm-.47-94.66a15.53,15.53,0,0,1,8,20.15,16.23,16.23,0,0,1-2.35,3.75l-5.62,7A70.81,70.81,0,0,0,179,40.76l-6.09-18.27A18.78,18.78,0,0,1,181.81,23.42Zm-140.58,67a16.14,16.14,0,0,1,8-20.15l6.56,15.94a67.81,67.81,0,0,0,9.37,15.93l-9.84-.94A15.69,15.69,0,0,1,41.23,90.43Zm66.54,24.84A51.23,51.23,0,0,1,64.66,82.94L52.48,52a4.65,4.65,0,0,1,2.34-6.09l98.87-35.61a5.16,5.16,0,0,1,3.75,0,4.76,4.76,0,0,1,2.35,2.81L170.09,44a51.5,51.5,0,0,1-9.83,49.67l-14.53,16.87L150,121.83l-16.87,7-4.69-11.72Zm-30,67.94L88.56,179l11.72,35.62,8.9-2.81L97,175.25l18.74-7.5,15.93,47.33L93.72,231Z"/><path class="cls-1" d="M231.48,82v4.68h9.37V82a23.2,23.2,0,0,1,23.43-23.43V49.2a23.2,23.2,0,0,1-23.43-23.43V21.08h-9.37v4.69A23.2,23.2,0,0,1,208.05,49.2v9.37A23.2,23.2,0,0,1,231.48,82Zm4.68-39.36a32.37,32.37,0,0,0,11.25,11.24,32.32,32.32,0,0,0-11.25,11.25,32.21,32.21,0,0,0-11.24-11.25A32.26,32.26,0,0,0,236.16,42.64Z"/><path class="cls-1" d="M25.3,175.71v4.69h9.37v-4.69A23.2,23.2,0,0,1,58.1,152.28v-9.37a23.2,23.2,0,0,1-23.43-23.43V114.8H25.3v4.68A23.19,23.19,0,0,1,1.87,142.91v9.37A23.2,23.2,0,0,1,25.3,175.71ZM30,136.35A32.29,32.29,0,0,0,41.23,147.6,32.29,32.29,0,0,0,30,158.85,32.23,32.23,0,0,0,18.74,147.6,32.23,32.23,0,0,0,30,136.35Z"/><path class="cls-1" d="M259.59,119.48V114.8h-9.37v4.68a23.2,23.2,0,0,1-23.43,23.43v9.37a23.2,23.2,0,0,1,23.43,23.43v4.69h9.37v-4.69A23.2,23.2,0,0,1,283,152.28v-9.37A23.2,23.2,0,0,1,259.59,119.48Zm-4.68,39.37a32.23,32.23,0,0,0-11.25-11.25,32.23,32.23,0,0,0,11.25-11.25,32.29,32.29,0,0,0,11.24,11.25A32.29,32.29,0,0,0,254.91,158.85Z"/><path class="cls-1" d="M139.17,83.4,145.73,90c25.77-25.77,1.87-65.13.47-66.54l-8,5.16C138.7,28.58,159.79,62.79,139.17,83.4Z"/></g></g></svg>