<svg xmlns="http://www.w3.org/2000/svg" viewBox="0 0 271.3 261.74"><defs><style>.cls-1{fill:#cc8a81;}.cls-2{fill:#cc543a;}</style></defs><g id="圖層_2" data-name="圖層 2"><g id="圖層_1-2" data-name="圖層 1"><path class="cls-1" d="M215.28,163.15H190.59a36.64,36.64,0,0,0-9.71,1.31,37,37,0,0,0-32.94-20.26H104.29a37,37,0,0,0-32.94,20.26,36.64,36.64,0,0,0-9.71-1.31H37A37,37,0,0,0,0,200.1v39.47a22.19,22.19,0,0,0,22.17,22.17H230.06a22.2,22.2,0,0,0,22.17-22.17V200.1A37,37,0,0,0,215.28,163.15Zm-147.93,18V247H22.17a7.4,7.4,0,0,1-7.39-7.39V200.1A22.19,22.19,0,0,1,37,177.93H61.64a22.24,22.24,0,0,1,5.8.78C67.38,179.52,67.35,180.33,67.35,181.15ZM170.1,247h-88V181.15A22.2,22.2,0,0,1,104.29,159h43.65a22.19,22.19,0,0,1,22.16,22.17Zm67.35-7.39a7.4,7.4,0,0,1-7.39,7.39H184.88V181.15c0-.82,0-1.64-.09-2.44a22.18,22.18,0,0,1,5.8-.78h24.69a22.2,22.2,0,0,1,22.17,22.17Z"/><path class="cls-1" d="M49.29,93.37a32.84,32.84,0,1,0,32.83,32.84A32.87,32.87,0,0,0,49.29,93.37Zm0,50.89a18.06,18.06,0,1,1,18.06-18A18.07,18.07,0,0,1,49.29,144.26Z"/><path class="cls-1" d="M126.11,52.6A43.86,43.86,0,1,0,170,96.46,43.91,43.91,0,0,0,126.11,52.6Zm0,72.94A29.09,29.09,0,1,1,155.2,96.46,29.11,29.11,0,0,1,126.11,125.54Z"/><path class="cls-1" d="M202.94,93.37a32.84,32.84,0,1,0,32.83,32.84A32.87,32.87,0,0,0,202.94,93.37Zm0,50.89a18.06,18.06,0,1,1,18.05-18A18.08,18.08,0,0,1,202.94,144.26Z"/><path class="cls-2" d="M268.82,153.69l-40.16-41.76a68.23,68.23,0,1,0-13.11,12L256,166a8.89,8.89,0,1,0,12.81-12.32ZM176.52,17.77a50.36,50.36,0,1,1-50.36,50.36A50.41,50.41,0,0,1,176.52,17.77Z"/></g></g></svg>