<svg xmlns="http://www.w3.org/2000/svg" viewBox="0 0 249.66 205.27"><defs><style>.cls-1{fill:#cc543a;}</style></defs><g id="圖層_2" data-name="圖層 2"><g id="圖層_1-2" data-name="圖層 1"><path class="cls-1" d="M171.09,48.13a77.72,77.72,0,0,0-46.26,15.06A77.83,77.83,0,0,0,97.14,50.32l21.11-24.19,0,0a3.83,3.83,0,0,0,.33-.46.35.35,0,0,0,.05-.08,4,4,0,0,0,.25-.51l0-.08a4.94,4.94,0,0,0,.15-.55.11.11,0,0,1,0-.05,3.1,3.1,0,0,0,0-.54s0,0,0-.07v0a4.38,4.38,0,0,0,0-.51s0-.07,0-.1a3,3,0,0,0-.13-.54.25.25,0,0,1,0-.07,4.41,4.41,0,0,0-.24-.54l0,0a3.58,3.58,0,0,0-.34-.52h0l0,0L102,1.35A3.69,3.69,0,0,0,99.14,0H58a3.68,3.68,0,0,0-2.84,1.35l-16.32,20,0,0h0a3.93,3.93,0,0,0-.35.52v0a4.41,4.41,0,0,0-.24.54.14.14,0,0,1,0,.06,4.92,4.92,0,0,0-.14.55s0,.06,0,.1a4.06,4.06,0,0,0,0,.51v0a.17.17,0,0,0,0,.07,3.1,3.1,0,0,0,0,.54s0,0,0,.05a4.94,4.94,0,0,0,.15.55l0,.08a3,3,0,0,0,.25.51l0,.08a3.83,3.83,0,0,0,.33.46l0,0L60,50.35A78.57,78.57,0,0,0,78.57,205.27a77.72,77.72,0,0,0,46.26-15.06,77.72,77.72,0,0,0,46.26,15.06,78.57,78.57,0,0,0,0-157.14ZM97.4,7.33l10.37,12.73H95.85L91.74,7.33ZM95.79,27.39h11.63L88.75,48.78l-.33,0ZM73.1,7.33H84l4.11,12.73H69ZM88,27.39,80.86,48.17c-.76,0-1.52,0-2.29,0l-1.44,0-.85,0L69.1,27.39ZM59.74,7.33H65.4L61.29,20.06H49.37Zm-10,20.06H61.35l7.38,21.36-.34,0ZM78.57,197.94a71.24,71.24,0,0,1-11-141.62c.85-.14,1.71-.25,2.56-.35l.33,0c1.15-.13,2.3-.23,3.46-.3h0c.85-.06,1.63-.1,2.37-.12s1.5,0,2.25,0c1.5,0,3,.1,4.61.2h.41c2,.14,4,.37,6,.69a3.43,3.43,0,0,0,.56,0h0a70.32,70.32,0,0,1,32.37,14.27c1,.77,2,1.57,2.9,2.4s1.82,1.64,2.7,2.49c.47.46.94.93,1.4,1.4,1.32,1.35,2.59,2.75,3.79,4.2h0a71.23,71.23,0,0,1,2.2,88.3l-.06-.05-1.5-1.3-.28-.26-1.17-1.09-.49-.49-.91-.91-.54-.57c-.28-.29-.55-.59-.82-.89-.09-.09-.17-.19-.25-.28A62.71,62.71,0,0,0,140.81,136a3.66,3.66,0,0,0-7.25-1.07,55.3,55.3,0,0,1-8.74,22.58,55.64,55.64,0,0,1,0-61.68,55.09,55.09,0,0,1,9.05,25.1,3.68,3.68,0,0,0,3.65,3.29l.38,0a3.67,3.67,0,0,0,3.27-4,63,63,0,0,0-23.85-43.09c-.55-.43-1.11-.85-1.67-1.26a62.91,62.91,0,0,0-78.28,3.28,3.66,3.66,0,1,0,4.8,5.53,55.59,55.59,0,0,1,66-5,78.58,78.58,0,0,0,0,94.12A55.6,55.6,0,0,1,32.87,95a3.66,3.66,0,1,0-6-4.18,62.93,62.93,0,0,0,86,88.62l.28.3.73.78c.23.25.47.5.71.74l.75.77.73.73.77.74.74.71.8.72.52.48A70.43,70.43,0,0,1,78.57,197.94Zm92.52,0a70.54,70.54,0,0,1-44-15.2A71.25,71.25,0,0,1,114.1,84l.06,0q.77.63,1.5,1.29l.29.27c.4.36.78.72,1.16,1.08l.51.5.9.91.54.57c.28.29.55.59.82.88l.25.29a62.93,62.93,0,0,0,94.79,82.07,3.67,3.67,0,0,0-5.11-5.26,55.6,55.6,0,0,1-68.33,7.16,78.53,78.53,0,0,0,0-94.11,55.6,55.6,0,0,1,77,76.18,3.67,3.67,0,1,0,6.24,3.85,62.94,62.94,0,0,0-87.91-85.74l-.26-.28-.75-.81-.69-.72-.78-.79c-.23-.24-.46-.47-.7-.7l-.8-.77-.72-.69-.82-.75-.5-.46a70.4,70.4,0,0,1,40.33-12.51,71.24,71.24,0,1,1,0,142.48Z"/></g></g></svg>