<svg xmlns="http://www.w3.org/2000/svg" viewBox="0 0 269.2 265.61"><defs><style>.cls-1{fill:#cc543a;}</style></defs><g id="圖層_2" data-name="圖層 2"><g id="圖層_1-2" data-name="圖層 1"><path class="cls-1" d="M268.1,112.7,223,54.18a5.27,5.27,0,0,0-7-1.24l-29.09,18.5H149a5.13,5.13,0,0,0-1.45.25l-29.42,8.46L87.61,71.81,58,52.94A5.28,5.28,0,0,0,51,54.08L1.17,115.81a5.28,5.28,0,0,0,.67,7.32L28,145.6l23.43,31.58a18.64,18.64,0,0,0,11.73,31.31,18.09,18.09,0,0,0-.22,2.86A18.66,18.66,0,0,0,81.55,230h.2c0,.13,0,.26,0,.38A18.66,18.66,0,0,0,100.4,249a18.73,18.73,0,0,0,2.91-.23,18.66,18.66,0,0,0,31.75,11.36l2.85-2.85,1.2,1a18.64,18.64,0,0,0,31.61-13.7,18.63,18.63,0,0,0,18.94-18.92,18.65,18.65,0,0,0,18.93-19,18.65,18.65,0,0,0,15.94-28.8l17.11-35.84,25.72-22.13A5.29,5.29,0,0,0,268.1,112.7ZM56.26,64.38,77.58,77.94,31.19,134.46l-18.59-16Zm3,119.84,6.43-6.44a7.76,7.76,0,0,1,.61-.55,8.12,8.12,0,0,1,4.4-1.79h.14q.34,0,.69,0a8.06,8.06,0,0,1,5.78,2.53A8.31,8.31,0,0,1,77,189.43l-6.24,6.24a8.1,8.1,0,0,1-11.45-11.45Zm16.56,32.85a8.08,8.08,0,0,1,0-11.45l12.48-12.48a8.17,8.17,0,0,1,9.2-1.59,8.06,8.06,0,0,1,4.46,8.36,8.52,8.52,0,0,1-2.41,4.88L87.28,217.07a8.1,8.1,0,0,1-11.45,0Zm18.84,19a8.1,8.1,0,0,1,0-11.45l12.48-12.48a8.19,8.19,0,0,1,9.79-1.29,8.07,8.07,0,0,1,3.87,8.19,8.59,8.59,0,0,1-2.4,4.75L106.12,236.1a8.1,8.1,0,0,1-11.45,0Zm21.47,16.59a8.1,8.1,0,0,1,0-11.45l6.44-6.43a6.2,6.2,0,0,1,.6-.55l0,0a8,8,0,0,1,3.59-1.66l.09,0,.69-.09.28,0,.56,0a8,8,0,0,1,5.78,2.54c.18.2.36.4.52.61a8.37,8.37,0,0,1-.91,10.91l-6.21,6.2A8.1,8.1,0,0,1,116.14,252.69Zm98.47-58.91a8.1,8.1,0,0,1-11.45,0l-.36-.32-33.94-34.3a5.28,5.28,0,0,0-7.51,7.43l34.31,34.66v0a8.1,8.1,0,0,1-11.45,11.45l-22.95-23.19a5.28,5.28,0,1,0-7.5,7.43l22.6,22.83a4.72,4.72,0,0,0,.37.41,8.1,8.1,0,1,1-11.46,11.45L152.76,219a5.28,5.28,0,0,0-7.51,7.42l12.18,12.3a5,5,0,0,0,.37.42,8.1,8.1,0,0,1-11.45,11.45,13.86,13.86,0,0,0-1.19-1c-.35-.26-.44-.44-.27-.86s.44-.81.61-1.24a13.93,13.93,0,0,0,.5-1.46,19.07,19.07,0,0,0,.69-8.12A18.5,18.5,0,0,0,131,222.06a18.82,18.82,0,0,0-4.52-17,18.52,18.52,0,0,0-13.3-5.83h-.55a18.48,18.48,0,0,0-18.29-19,18.92,18.92,0,0,0-4.5.48,18.48,18.48,0,0,0-18.1-15.84,18.73,18.73,0,0,0-12.75,4.79l-20.4-27.49L87.35,82.68l15.56,4.26L82.59,122.79a18.65,18.65,0,0,0,7,25.43l.82.43.06,0a18.9,18.9,0,0,0,2.24.93,18.65,18.65,0,0,0,22.3-8.44l13.21-23.3,23.57,1.67,62.78,62.78A8.1,8.1,0,0,1,214.61,193.78Zm2.19-24.19L157.9,110.7a2.66,2.66,0,0,0-.35-.32,5.26,5.26,0,0,0-3-1.22l-28.87-2a5.36,5.36,0,0,0-5,2.66L105.87,136a8.1,8.1,0,0,1-14.09-8L111.6,93l8-2.31.15,0,30-8.66H186l45.21,57.47Zm21.29-38.41L196.28,78l21.34-13.57,39.07,50.74Z"/><path class="cls-1" d="M163.09,61.53A5.25,5.25,0,0,0,166.82,60l36.06-36.06a5.28,5.28,0,0,0-7.47-7.47l-36,36.06a5.28,5.28,0,0,0,3.73,9Z"/><path class="cls-1" d="M102.38,60a5.28,5.28,0,0,0,7.46-7.47l-36-36.06a5.28,5.28,0,0,0-7.47,7.47Z"/><path class="cls-1" d="M134.6,61.53a5.28,5.28,0,0,0,5.28-5.28V26.41a5.28,5.28,0,0,0-10.56,0V56.25A5.27,5.27,0,0,0,134.6,61.53Z"/><path class="cls-1" d="M129.73,7.28a5.27,5.27,0,1,0,8.08-6.2,5.34,5.34,0,0,0-6.14-.21A5.32,5.32,0,0,0,129.73,7.28Z"/></g></g></svg>