<svg xmlns="http://www.w3.org/2000/svg" viewBox="0 0 315.6 198.39"><defs><style>.cls-1{fill:#cc543a;}</style></defs><g id="圖層_2" data-name="圖層 2"><g id="圖層_1-2" data-name="圖層 1"><g id="Planting-5"><g id="Outline"><path class="cls-1" d="M68.4,156.92l-6.23-6.23a1.46,1.46,0,0,0-2.08,0h0c-14.21,14.25-13.71,13.62-14.58,14.7a1.47,1.47,0,0,0,2.3,1.83c.7-.88.33-.39,13.32-13.42l5.2,5.19-3.08,3.08a1.47,1.47,0,0,0,0,2.08,1.45,1.45,0,0,0,1,.42c1.1,0,.55-.17,11.38-10.77L79.83,158,62.17,175.61a2.94,2.94,0,0,1-4.54-3.68,1.47,1.47,0,0,0-2.46-1.61h0a5.88,5.88,0,0,0,9.08,7.36L74.63,167.3l5.2,5.19L67.36,185a12,12,0,0,1-6.61,3.36,1.46,1.46,0,0,0,.48,2.89A14.78,14.78,0,0,0,69.44,187l13.5-13.5a1.47,1.47,0,0,0,0-2.07h0l-6.23-6.24,15.58-15.57A5.88,5.88,0,0,0,84,141.34Zm17.66-13.5a2.93,2.93,0,0,1,4.15,4.15l-8.31,8.31-4.15-4.16Z"/><path class="cls-1" d="M12.77,171.18c.78-.27,1.61-.51,2.47-.72,3.52.1,5.34,3.11,5.34,4.4a1.47,1.47,0,0,0,1.47,1.47c3.16,0,1-7.24-5.05-8.59,3.32-8.52,13-7.51,13.21-7.56a23.82,23.82,0,0,0-.82,5.87,1.5,1.5,0,0,0,1.47,1.47,1.46,1.46,0,0,0,1.47-1.46,18.33,18.33,0,0,1,1.3-6.67c4.36-7.86,12.6-9.48,19.36-7a1.47,1.47,0,0,0,1-2.76h0a19.37,19.37,0,0,0-5.53-1.18V135.93l6.91-5.43c4.06,3.95,9.28,2.36,13.74-1.15,6.2-4.87,9.07-16.63,9.18-17.12a1.46,1.46,0,0,0-1.08-1.77,1.32,1.32,0,0,0-.34,0c-.51,0-12.61,0-18.81,4.87-4.35,3.41-7.19,8-4.48,12.88l-5.12,4a26.29,26.29,0,0,0-1.88-9.91c3-3.25,3.27-7.82-1.86-12.6-4.9-4.58-15.26-5.28-15.7-5.3a1.47,1.47,0,0,0-1.56,1.37,1.31,1.31,0,0,0,0,.28c.06.44,1.46,10.73,6.36,15.31,3,2.78,6.67,4.59,10.31,2.8,2.07,5.68,1.16,9.59,1.38,15.94l-4.2-2.28c.72-2.45.48-6.43-6.13-10-6.09-3.32-16.31-2-16.75-2a1.47,1.47,0,0,0-1.26,1.65,1.39,1.39,0,0,0,.13.44c.18.4,4.66,9.68,10.75,13,4.18,2.27,8.91,3.22,11.9-.47l5.56,3v5.06a17.49,17.49,0,0,0-14.06,8.75c-1.52.17-7.1-.89-12.43,3.13a14.43,14.43,0,0,0-5.17,7.4q-1.07.28-2.07.63a1.47,1.47,0,0,0,.95,2.78ZM59.89,117.6c4-3.18,11.51-4,15-4.18-1,3.38-3.56,10.44-7.62,13.63-3,2.35-6.68,4.1-9.58,1.61l10.75-8.45a1.47,1.47,0,1,0-1.81-2.31h0L56,126.32C54.42,123,57,119.87,59.89,117.6Zm-14.71,1.73a25.8,25.8,0,0,0-6-7.27,1.47,1.47,0,1,0-1.88,2.25A23.15,23.15,0,0,1,43,121.44c-2.46,1.3-5.11-.35-7.14-2.24-3-2.82-4.52-8.69-5.12-11.7,3,.4,9,1.51,12,4.32,2.28,2.14,4.07,4.83,2.44,7.5Zm-6.52,17-7.47-4.07a1.47,1.47,0,0,0-1.4,2.58l7.54,4.1c-1.6,1.52-4.23,1.3-7.84-.66s-6.93-7-8.5-9.78c3.17-.18,9.09-.19,12.82,1.84,3.48,1.89,5.1,3.9,4.85,6Z"/><path class="cls-1" d="M89.66,173h0a1.47,1.47,0,1,0-2.07,2.08c7.53,7.51,2.16,20.31-8.27,20.31H14.7A11.91,11.91,0,0,1,3.42,180a1.47,1.47,0,0,0-1-1.8,1.45,1.45,0,0,0-1.8,1h0A14.83,14.83,0,0,0,14.7,198.36H79.32A14.7,14.7,0,0,0,94,183.68,14,14,0,0,0,89.66,173Z"/><path class="cls-1" d="M50.68,189.55A1.46,1.46,0,0,0,49.22,191c0,3.24,8.07,1.06,8.07-5.14a6.59,6.59,0,0,0-4.41-6.24c.4-9.33-12.19-12.74-16.57-4.53a6.61,6.61,0,0,0-8.39,6.36c0,6.24,8.08,8.35,8.08,5.14a1.46,1.46,0,0,0-1.47-1.46,3.68,3.68,0,0,1,0-7.35,3.62,3.62,0,0,1,1.82.49,1.48,1.48,0,0,0,2-.54,1.69,1.69,0,0,0,.12-.28,5.88,5.88,0,0,1,11.35,3A1.46,1.46,0,0,0,51,182.21l.14,0a3.67,3.67,0,0,1-.42,7.32Z"/><circle class="cls-1" cx="5.89" cy="173.4" r="1.47"/><circle class="cls-1" cx="60.23" cy="167.52" r="1.47"/></g></g><path class="cls-1" d="M314.41,53.39,290.14,25.45a4.82,4.82,0,0,0-3.67-1.66l-67.73.2a4.67,4.67,0,0,0-1.53.25l-27.47,9.25-27.52-9.11a4.69,4.69,0,0,0-1.53-.22l-14.52,0a4.83,4.83,0,0,0,4.58-3.32l4.8-14.53A4.85,4.85,0,0,0,152.47.24,5,5,0,0,0,150.94,0L34.84.34A4.84,4.84,0,0,0,30,5.2a4.61,4.61,0,0,0,.25,1.52l4.88,14.5a4.83,4.83,0,0,0,4.6,3.3l17.35-.05,10.08,66A4.83,4.83,0,0,0,72,94.57l31.35-.09,28.52,100.4a4.84,4.84,0,0,0,4.68,3.51l19.84-.06a4.84,4.84,0,0,0,4.82-4.85L161.05,145l102.83-1.55,2.27,7.52a4.76,4.76,0,0,0,.87,1.65l14.56,18,.07,22.48a4.84,4.84,0,0,0,4.85,4.82l19.84-.05a4.85,4.85,0,0,0,4.82-4.68l4.43-136.49A4.83,4.83,0,0,0,314.41,53.39ZM43.2,14.83,41.58,10l13.31,0,.74,4.84ZM131,9.73l13.3,0-1.59,4.84-12.42,0ZM76.12,84.88,64.67,9.93l56.49-.17-2.74,18.65-8.26,56.37ZM301.64,188.22l-10.33,0-.06-19.35a4.85,4.85,0,0,0-1.07-3l-15.05-18.56-3.05-10.11a4.85,4.85,0,0,0-4.64-3.44h-.05l-111.27,1.68a4.83,4.83,0,0,0-4.76,4.85l.14,48.38-11.33,0L113.39,94.45h1a4.83,4.83,0,0,0,4.78-4.13l8.27-56.38,32.53-.09,28.31,9.34a4.78,4.78,0,0,0,3.06,0l28.25-9.51,64.73-.19L305.85,58.3Z"/><rect class="cls-1" x="256.18" y="102.27" width="9.68" height="23.93" transform="translate(-16.22 48.52) rotate(-10.3)"/></g></g></svg>